<svg width="48" height="48" viewBox="0 0 48 48" fill="none" xmlns="http://www.w3.org/2000/svg">
<mask id="mask0_4017_5063" style="mask-type:alpha" maskUnits="userSpaceOnUse" x="0" y="0" width="48" height="48">
<circle cx="24" cy="24" r="24" fill="#D9D9D9"/>
</mask>
<g mask="url(#mask0_4017_5063)">
<path d="M24 0C37.2548 0 48 10.7452 48 24C48 29.8252 45.9233 35.1646 42.4717 39.3213C43.4557 41.6857 44 44.2792 44 47C44 58.0457 35.0457 67 24 67C12.9543 67 4 58.0457 4 47C4 44.2793 4.54341 41.6856 5.52734 39.3213C2.07596 35.1646 0 29.825 0 24C0 10.7452 10.7452 0 24 0ZM24 2C11.8497 2 2 11.8497 2 24C2 29.0085 3.67462 33.6253 6.49316 37.3232C9.90295 31.1675 16.4646 27 24 27C31.5352 27 38.096 31.1678 41.5059 37.3232C44.3246 33.6253 46 29.0087 46 24C46 11.8497 36.1503 2 24 2Z" fill="#6C5DD3" fill-opacity="0.2"/>
<circle cx="24" cy="16" r="7" fill="#6C5DD3" fill-opacity="0.2"/>
</g>
</svg>
