<svg width="24" height="24" viewBox="0 0 24 24" fill="none" xmlns="http://www.w3.org/2000/svg">
<mask id="mask0_4017_4857" style="mask-type:alpha" maskUnits="userSpaceOnUse" x="0" y="0" width="24" height="24">
<rect width="24" height="24" transform="matrix(-1 0 0 1 24 0)" fill="#D9D9D9"/>
</mask>
<g mask="url(#mask0_4017_4857)">
<path d="M16.1749 12.9998L11.2749 17.8998C11.0749 18.0998 10.9791 18.3331 10.9874 18.5998C10.9957 18.8665 11.0999 19.0998 11.2999 19.2998C11.4999 19.4831 11.7332 19.579 11.9999 19.5873C12.2666 19.5956 12.4999 19.4998 12.6999 19.2998L19.2999 12.6998C19.3999 12.5998 19.4707 12.4915 19.5124 12.3748C19.5541 12.2581 19.5749 12.1331 19.5749 11.9998C19.5749 11.8665 19.5541 11.7415 19.5124 11.6248C19.4707 11.5081 19.3999 11.3998 19.2999 11.2998L12.6999 4.6998C12.5166 4.51647 12.2874 4.4248 12.0124 4.4248C11.7374 4.4248 11.4999 4.51647 11.2999 4.6998C11.0999 4.8998 10.9999 5.1373 10.9999 5.4123C10.9999 5.6873 11.0999 5.9248 11.2999 6.1248L16.1749 10.9998H4.99989C4.71656 10.9998 4.47906 11.0956 4.28739 11.2873C4.09572 11.479 3.99989 11.7165 3.99989 11.9998C3.99989 12.2831 4.09572 12.5206 4.28739 12.7123C4.47906 12.904 4.71656 12.9998 4.99989 12.9998H16.1749Z" fill="white"/>
</g>
</svg>
