<svg width="25" height="24" viewBox="0 0 25 24" fill="none" xmlns="http://www.w3.org/2000/svg">
<path d="M4.79965 19C3.94965 19 3.29132 18.7042 2.82465 18.1125C2.35798 17.5208 2.18298 16.8 2.29965 15.95L3.34965 8.45C3.49965 7.45 3.94548 6.625 4.68715 5.975C5.42882 5.325 6.29965 5 7.29965 5H17.1996C18.1996 5 19.0705 5.325 19.8121 5.975C20.5538 6.625 20.9996 7.45 21.1496 8.45L22.1996 15.95C22.3163 16.8 22.1413 17.5208 21.6747 18.1125C21.208 18.7042 20.5497 19 19.6996 19C19.3496 19 19.0246 18.9375 18.7246 18.8125C18.4247 18.6875 18.1496 18.5 17.8996 18.25L15.6496 16H8.84965L6.59965 18.25C6.34965 18.5 6.07465 18.6875 5.77465 18.8125C5.47465 18.9375 5.14965 19 4.79965 19ZM17.2496 13C17.533 13 17.7705 12.9042 17.9621 12.7125C18.1538 12.5208 18.2496 12.2833 18.2496 12C18.2496 11.7167 18.1538 11.4792 17.9621 11.2875C17.7705 11.0958 17.533 11 17.2496 11C16.9663 11 16.7288 11.0958 16.5371 11.2875C16.3455 11.4792 16.2496 11.7167 16.2496 12C16.2496 12.2833 16.3455 12.5208 16.5371 12.7125C16.7288 12.9042 16.9663 13 17.2496 13ZM15.2496 10C15.533 10 15.7705 9.90417 15.9621 9.7125C16.1538 9.52083 16.2496 9.28333 16.2496 9C16.2496 8.71667 16.1538 8.47917 15.9621 8.2875C15.7705 8.09583 15.533 8 15.2496 8C14.9663 8 14.7288 8.09583 14.5371 8.2875C14.3455 8.47917 14.2496 8.71667 14.2496 9C14.2496 9.28333 14.3455 9.52083 14.5371 9.7125C14.7288 9.90417 14.9663 10 15.2496 10ZM7.99965 11.25V12.25C7.99965 12.4667 8.07048 12.6458 8.21215 12.7875C8.35382 12.9292 8.53298 13 8.74965 13C8.96632 13 9.14548 12.9292 9.28715 12.7875C9.42881 12.6458 9.49965 12.4667 9.49965 12.25V11.25H10.4996C10.7163 11.25 10.8955 11.1792 11.0371 11.0375C11.1788 10.8958 11.2496 10.7167 11.2496 10.5C11.2496 10.2833 11.1788 10.1042 11.0371 9.9625C10.8955 9.82083 10.7163 9.75 10.4996 9.75H9.49965V8.75C9.49965 8.53333 9.42881 8.35417 9.28715 8.2125C9.14548 8.07083 8.96632 8 8.74965 8C8.53298 8 8.35382 8.07083 8.21215 8.2125C8.07048 8.35417 7.99965 8.53333 7.99965 8.75V9.75H6.99965C6.78298 9.75 6.60382 9.82083 6.46215 9.9625C6.32048 10.1042 6.24965 10.2833 6.24965 10.5C6.24965 10.7167 6.32048 10.8958 6.46215 11.0375C6.60382 11.1792 6.78298 11.25 6.99965 11.25H7.99965Z" fill="#828289"/>
</svg>
