<svg width="24" height="24" viewBox="0 0 24 24" fill="none" xmlns="http://www.w3.org/2000/svg">
<g clip-path="url(#clip0_4017_8524)">
<path fill-rule="evenodd" clip-rule="evenodd" d="M9.18192 7.92695L9.16845 7.91342C9.12956 7.8082 9.08917 7.68945 9.05028 7.58423C8.9321 7.24151 8.83936 6.89729 8.77354 6.5681V6.54105C8.76007 6.48844 8.76007 6.44936 8.74661 6.40877V6.35616C8.73315 6.31708 8.73315 6.27649 8.71968 6.23741V6.1848L8.70622 6.06605L8.69276 5.99992V5.89469L8.6793 5.81503V5.1822C8.6793 5.15515 8.69276 5.12959 8.69276 5.10254V5.02287C8.70622 4.95673 8.70622 4.90412 8.71968 4.85151C8.71968 4.81243 8.73315 4.78537 8.73315 4.75982C8.73315 4.73427 8.74661 4.70721 8.74661 4.68015C8.76007 4.64107 8.76007 4.61401 8.77354 4.57493C8.77354 4.5614 8.77354 4.53585 8.787 4.50879C8.787 4.48174 8.80046 4.44266 8.80046 4.4171C8.81393 4.39005 8.81393 4.36449 8.82739 4.32541L8.85431 4.24574C8.85431 4.21869 8.86778 4.19313 8.88124 4.16608C8.88124 4.13902 8.8947 4.11347 8.90817 4.08641L8.93509 3.99472L8.96202 3.91505L9.00091 3.82336L9.02784 3.74369C9.0413 3.71664 9.05476 3.69108 9.06673 3.652L9.10562 3.58586C9.11909 3.5588 9.13255 3.51972 9.14452 3.49417L9.18341 3.4145C9.19687 3.38745 9.2223 3.36189 9.23577 3.32281C9.24923 3.30928 9.26269 3.28373 9.27466 3.25667C9.30159 3.22962 9.31355 3.19053 9.34048 3.15145C9.35394 3.13792 9.36741 3.11237 9.36741 3.09884C9.39433 3.05976 9.41976 3.0327 9.44669 2.99362C9.46015 2.98009 9.47361 2.95454 9.48558 2.94101C9.51251 2.8884 9.5514 2.83579 9.59179 2.78318L9.61872 2.75612C9.64564 2.71704 9.68454 2.67646 9.72492 2.62385C9.73839 2.61032 9.75185 2.58477 9.77728 2.57124C9.80421 2.53216 9.82964 2.5051 9.85656 2.47955C9.87003 2.45249 9.89546 2.42694 9.90892 2.41341C9.93584 2.38635 9.96128 2.34727 9.9882 2.32172C10.0151 2.30819 10.0406 2.28263 10.0675 2.25558L10.1468 2.17591L10.2126 2.10977C10.2515 2.08272 10.2784 2.05716 10.3053 2.03011L10.3846 1.96397L10.4774 1.8843L10.5566 1.81816C10.5836 1.7911 10.6225 1.76555 10.6628 1.73849L10.7287 1.67236L10.8468 1.59269L10.9261 1.54008C10.965 1.501 11.0054 1.47394 11.0578 1.44839C11.0847 1.43486 11.0967 1.40931 11.1236 1.39578C11.1759 1.36872 11.2298 1.34317 11.2687 1.30409L11.3345 1.265C11.3869 1.23795 11.4407 1.19887 11.4931 1.17331L11.5723 1.13423C11.6382 1.09515 11.7175 1.04254 11.7967 1.00195L13.1296 2.86285C10.0944 4.06386 9.85656 6.33361 10.5163 8.80178L11.2163 8.34031L11.2029 8.40645L11.1894 8.43351V8.46057L11.1759 8.48762L11.1625 8.5267V8.54023L11.149 8.57931V8.63192L11.1355 8.64545V8.69806L11.1221 8.71159V8.7642L11.1086 8.80328V8.84236L11.0952 8.86942V8.93556L11.0817 8.97464V9.07986L11.0682 9.13247V9.33089V9.42258L11.0817 9.44964V9.5293V9.58191L11.0952 9.59544V9.67511C11.1086 9.72772 11.1221 9.7668 11.1221 9.80738V9.82091L11.1355 9.85999C11.149 9.88705 11.149 9.92613 11.1625 9.95169V9.96522L11.1759 10.0043L11.1894 10.0434V10.0825L11.2029 10.096V10.123L11.2163 10.1501V10.1636L11.2298 10.2027L11.2433 10.2298V10.2433L11.2567 10.2704L11.2702 10.2974V10.3109L11.2836 10.35L11.2971 10.3891V10.4026L11.3106 10.4297L11.324 10.4567L11.3375 10.4838V10.5109L11.351 10.5244L11.3644 10.5635L11.3779 10.6025L11.3913 10.6161L11.4048 10.6431V10.6702L11.4183 10.6972L11.4317 10.7243V10.7378L11.4587 10.7769L11.4721 10.8295L11.4856 10.8431L11.4991 10.8701L11.5125 10.8972V10.9107L11.526 10.9633H11.5394C10.9845 6.83266 11.7249 2.27963 17.2268 2.43896L17.4647 4.72224C14.232 4.23372 12.8857 6.09461 12.2261 8.56278L13.0578 8.49664C12.2799 9.2888 12.1468 9.84196 12.0286 10.9242C13.6127 7.07016 16.5282 3.49417 21.2268 6.39825L20.2769 8.48311C17.7294 6.45086 15.6322 7.37529 13.8237 9.18208L14.5761 9.55185C13.5065 9.84196 13.1251 10.2643 12.4774 11.1362C15.7638 8.58984 20.0915 6.95291 22.7048 11.8096L20.8439 13.1429C19.6427 10.108 17.3734 9.87052 14.9052 10.5304L15.3674 11.2294C14.2979 10.9393 13.7578 11.1106 12.7541 11.5465C16.8708 10.9919 21.4378 11.7314 21.2792 17.2344L18.9965 17.4719C19.4722 14.2387 17.6247 12.8933 15.1565 12.2335L15.2089 13.0647C14.431 12.2861 13.876 12.1538 12.7945 12.035C16.6479 13.6194 20.2246 16.5355 17.3211 21.2328L15.2358 20.2828C17.2687 17.7365 16.3308 15.6381 14.5357 13.8298L14.1662 14.5814C13.876 13.5126 13.4542 13.1293 12.5821 12.483C15.1161 15.7689 16.7646 20.0979 11.9089 22.7104L10.5626 20.8495C13.5978 19.6485 13.8491 17.3787 13.1894 14.9106L12.4893 15.372C12.7795 14.3033 12.6075 13.7622 12.1722 12.7596C12.7272 16.8767 11.9867 21.4432 6.47136 21.2839L6.24698 19.0006C9.46613 19.4756 10.8259 17.6283 11.4856 15.1601L10.6404 15.2127C11.4317 14.4341 11.5514 13.8794 11.683 12.7971C10.0989 16.6512 7.1834 20.2272 2.48481 17.3231L3.4347 15.2383C5.9822 17.2705 8.07944 16.334 9.87451 14.5393L9.12208 14.1695C10.2036 13.8794 10.5866 13.457 11.2328 12.5852C7.93434 15.1195 3.61869 16.7685 1.00537 11.9118L2.86626 10.5665C4.06746 13.6013 6.33673 13.8524 8.80495 13.1925L8.34272 12.4935C9.41228 12.7836 9.9523 12.6123 10.956 12.1763C6.82589 12.731 2.27239 11.9915 2.43096 6.47491L4.71369 6.25094C4.22603 9.47068 6.08542 10.8295 8.55364 11.4894L8.48782 10.6446C9.27915 11.4368 9.83412 11.5555 10.9157 11.6878C7.06224 10.1035 3.48556 7.1874 6.38909 2.49007L8.47436 3.44006C6.44144 5.98639 7.3659 8.08478 9.17444 9.87954L9.54392 9.12796C9.83412 10.2102 10.256 10.592 11.1281 11.2399C10.3367 10.2102 9.6232 9.08888 9.1879 7.94048L9.18192 7.92695Z" fill="white"/>
</g>
<defs>
<clipPath id="clip0_4017_8524">
<rect width="21.6949" height="21.6949" fill="white" transform="translate(1 1)"/>
</clipPath>
</defs>
</svg>
