<svg width="390" height="517" viewBox="0 0 390 517" fill="none" xmlns="http://www.w3.org/2000/svg">
<g filter="url(#filter0_f_4142_4423)">
<path fill-rule="evenodd" clip-rule="evenodd" d="M174.058 255.23L173.952 255.124C173.647 254.3 173.331 253.37 173.026 252.546C172.101 249.862 171.374 247.167 170.858 244.589V244.377C170.753 243.965 170.753 243.659 170.647 243.341V242.929C170.542 242.623 170.542 242.305 170.436 241.999V241.587L170.331 240.657L170.225 240.139V239.315L170.12 238.691V233.736C170.12 233.524 170.225 233.324 170.225 233.112V232.488C170.331 231.97 170.331 231.558 170.436 231.146C170.436 230.84 170.542 230.628 170.542 230.428C170.542 230.228 170.647 230.016 170.647 229.804C170.753 229.498 170.753 229.286 170.858 228.98C170.858 228.874 170.858 228.674 170.964 228.462C170.964 228.25 171.069 227.944 171.069 227.744C171.175 227.532 171.175 227.332 171.28 227.026L171.491 226.402C171.491 226.19 171.597 225.99 171.702 225.778C171.702 225.567 171.808 225.366 171.913 225.155L172.124 224.437L172.335 223.813L172.64 223.095L172.851 222.471C172.956 222.259 173.061 222.059 173.155 221.753L173.46 221.235C173.565 221.023 173.671 220.717 173.765 220.517L174.069 219.893C174.175 219.681 174.374 219.481 174.48 219.175C174.585 219.069 174.69 218.869 174.784 218.657C174.995 218.445 175.089 218.139 175.3 217.833C175.405 217.727 175.511 217.527 175.511 217.421C175.722 217.115 175.921 216.903 176.132 216.597C176.237 216.491 176.343 216.291 176.437 216.185C176.648 215.773 176.952 215.361 177.269 214.949L177.48 214.737C177.691 214.431 177.995 214.113 178.312 213.701C178.417 213.595 178.523 213.395 178.722 213.289C178.933 212.983 179.132 212.771 179.343 212.571C179.449 212.359 179.648 212.159 179.753 212.053C179.964 211.841 180.163 211.535 180.374 211.335C180.585 211.229 180.785 211.029 180.995 210.817L181.617 210.193L182.132 209.675C182.437 209.464 182.648 209.263 182.859 209.052L183.48 208.534L184.207 207.91L184.828 207.392C185.039 207.18 185.343 206.98 185.66 206.768L186.175 206.25L187.101 205.626L187.722 205.214C188.027 204.908 188.343 204.696 188.754 204.496C188.965 204.39 189.058 204.19 189.269 204.084C189.679 203.872 190.101 203.672 190.406 203.366L190.922 203.06C191.332 202.848 191.754 202.542 192.164 202.342L192.785 202.036C193.794 201.437 195.048 201.705 195.732 202.659L201.891 211.256C203.463 213.448 202.536 216.527 200.135 217.757C180.972 227.574 179.719 244.159 184.511 262.081L189.996 258.467L189.89 258.985L189.785 259.197V259.409L189.679 259.621L189.574 259.927V260.033L189.468 260.339V260.751L189.363 260.857V261.269L189.258 261.375V261.787L189.152 262.093V262.399L189.047 262.611V263.129L188.941 263.435V264.259L188.836 264.671V266.224V266.942L188.941 267.154V267.778V268.19L189.047 268.296V268.92C189.152 269.332 189.258 269.638 189.258 269.956V270.062L189.363 270.368C189.468 270.58 189.468 270.886 189.574 271.086V271.192L189.679 271.498L189.785 271.804V272.11L189.89 272.216V272.428L189.996 272.64V272.746L190.101 273.052L190.207 273.264V273.369L190.312 273.581L190.418 273.793V273.899L190.523 274.205L190.629 274.511V274.617L190.734 274.829L190.84 275.041L190.945 275.253V275.465L191.051 275.571L191.156 275.877L191.262 276.183L191.367 276.289L191.473 276.501V276.713L191.578 276.924L191.683 277.136V277.242L191.894 277.548L192 277.96L192.105 278.066L192.211 278.278L192.316 278.49V278.596L192.422 279.008H192.527C188.305 247.594 193.654 213.059 233.447 212.236C235.524 212.193 237.245 213.796 237.46 215.863L238.392 224.804C238.673 227.502 236.318 229.724 233.609 229.583C212.103 228.472 202.695 242.299 197.906 260.209L204.422 259.691C198.328 265.895 197.285 270.227 196.359 278.702C208.411 249.394 230.297 222.14 265.26 241.41C267.089 242.418 267.772 244.684 266.905 246.585L263.183 254.751C262.064 257.206 258.932 257.935 256.668 256.466C238.637 244.763 223.558 251.942 210.423 265.059L216.317 267.955C207.938 270.227 204.95 273.534 199.875 280.362C224.877 260.998 257.571 248.35 278.189 282.46C279.268 284.245 278.73 286.545 277.034 287.759L269.736 292.986C267.544 294.556 264.467 293.63 263.237 291.23C253.415 272.077 236.825 270.826 218.896 275.618L222.517 281.091C214.138 278.82 209.907 280.161 202.043 283.575C233.364 279.357 268.012 284.697 268.848 324.479C268.891 326.557 267.288 328.278 265.22 328.493L256.256 329.425C253.565 329.705 251.346 327.361 251.479 324.659C252.533 303.146 238.788 293.744 220.864 288.955L221.275 295.464C215.181 289.367 210.833 288.331 202.36 287.401C231.675 299.449 258.946 321.331 239.671 356.27C238.662 358.098 236.398 358.78 234.498 357.915L226.327 354.194C223.869 353.075 223.14 349.94 224.61 347.674C236.303 329.66 229.037 314.582 216.001 301.456L213.106 307.341C210.833 298.972 207.528 295.97 200.696 290.909C219.977 315.9 232.713 348.597 198.581 369.2C196.803 370.274 194.513 369.744 193.295 368.061L188.004 360.751C186.417 358.559 187.34 355.466 189.748 354.232C208.903 344.413 210.244 327.834 205.454 309.919L199.969 313.533C202.243 305.164 200.895 300.926 197.484 293.075C201.707 324.383 196.359 359.01 156.481 359.845C154.394 359.889 152.669 358.273 152.465 356.196L151.584 347.231C151.32 344.547 153.66 342.345 156.353 342.477C177.809 343.532 187.314 329.792 192.105 311.873L185.484 312.285C191.683 306.188 192.621 301.844 193.652 293.369C181.601 322.676 159.714 349.931 124.752 330.661C122.923 329.652 122.24 327.387 123.106 325.486L126.828 317.32C127.948 314.865 131.08 314.135 133.344 315.603C151.375 327.294 166.446 320.041 179.484 307.012L173.589 304.116C182.062 301.844 185.062 298.536 190.125 291.709C165.028 310.983 132.416 323.718 111.803 289.598C110.728 287.818 111.259 285.526 112.944 284.308L120.258 279.023C122.449 277.439 125.539 278.362 126.774 280.767C136.596 299.916 153.181 301.255 171.104 296.465L167.483 290.991C175.862 293.263 180.093 291.921 187.957 288.507C156.537 292.725 121.99 287.386 121.152 247.519C121.109 245.431 122.726 243.706 124.803 243.503L133.75 242.625C136.44 242.361 138.643 244.713 138.503 247.413C137.39 268.848 151.214 278.339 169.136 283.128L168.62 276.512C174.819 282.716 179.167 283.646 187.64 284.682C158.325 272.634 131.054 250.752 150.329 215.812C151.338 213.984 153.602 213.302 155.502 214.167L163.673 217.888C166.131 219.007 166.86 222.143 165.389 224.407C153.683 242.421 160.865 257.493 173.999 270.521L176.894 264.635C179.167 273.111 182.472 276.1 189.304 281.174C183.105 273.111 177.515 264.329 174.105 255.336L174.058 255.23Z" fill="url(#paint0_linear_4142_4423)"/>
</g>
<g filter="url(#filter1_dd_4142_4423)">
<mask id="path-2-inside-1_4142_4423" fill="white">
<path fill-rule="evenodd" clip-rule="evenodd" d="M174.058 261.23L173.952 261.124C173.647 260.3 173.331 259.37 173.026 258.546C172.101 255.862 171.374 253.167 170.858 250.589V250.377C170.753 249.965 170.753 249.659 170.647 249.341V248.929C170.542 248.623 170.542 248.305 170.436 247.999V247.587L170.331 246.657L170.225 246.139V245.315L170.12 244.691V239.736C170.12 239.524 170.225 239.324 170.225 239.112V238.488C170.331 237.97 170.331 237.558 170.436 237.146C170.436 236.84 170.542 236.628 170.542 236.428C170.542 236.228 170.647 236.016 170.647 235.804C170.753 235.498 170.753 235.286 170.858 234.98C170.858 234.874 170.858 234.674 170.964 234.462C170.964 234.25 171.069 233.944 171.069 233.744C171.175 233.532 171.175 233.332 171.28 233.026L171.491 232.402C171.491 232.19 171.597 231.99 171.702 231.778C171.702 231.567 171.808 231.366 171.913 231.155L172.124 230.437L172.335 229.813L172.64 229.095L172.851 228.471C172.956 228.259 173.061 228.059 173.155 227.753L173.46 227.235C173.565 227.023 173.671 226.717 173.765 226.517L174.069 225.893C174.175 225.681 174.374 225.481 174.48 225.175C174.585 225.069 174.69 224.869 174.784 224.657C174.995 224.445 175.089 224.139 175.3 223.833C175.405 223.727 175.511 223.527 175.511 223.421C175.722 223.115 175.921 222.903 176.132 222.597C176.237 222.491 176.343 222.291 176.437 222.185C176.648 221.773 176.952 221.361 177.269 220.949L177.48 220.737C177.691 220.431 177.995 220.113 178.312 219.701C178.417 219.595 178.523 219.395 178.722 219.289C178.933 218.983 179.132 218.771 179.343 218.571C179.449 218.359 179.648 218.159 179.753 218.053C179.964 217.841 180.163 217.535 180.374 217.335C180.585 217.229 180.785 217.029 180.995 216.817L181.617 216.193L182.132 215.675C182.437 215.464 182.648 215.263 182.859 215.052L183.48 214.534L184.207 213.91L184.828 213.392C185.039 213.18 185.343 212.98 185.66 212.768L186.175 212.25L187.101 211.626L187.722 211.214C188.027 210.908 188.343 210.696 188.754 210.496C188.965 210.39 189.058 210.19 189.269 210.084C189.679 209.872 190.101 209.672 190.406 209.366L190.922 209.06C191.332 208.848 191.754 208.542 192.164 208.342L192.785 208.036C193.794 207.437 195.048 207.705 195.732 208.659L201.891 217.256C203.463 219.448 202.536 222.527 200.135 223.757C180.972 233.574 179.719 250.159 184.511 268.081L189.996 264.467L189.89 264.985L189.785 265.197V265.409L189.679 265.621L189.574 265.927V266.033L189.468 266.339V266.751L189.363 266.857V267.269L189.258 267.375V267.787L189.152 268.093V268.399L189.047 268.611V269.129L188.941 269.435V270.259L188.836 270.671V272.224V272.942L188.941 273.154V273.778V274.19L189.047 274.296V274.92C189.152 275.332 189.258 275.638 189.258 275.956V276.062L189.363 276.368C189.468 276.58 189.468 276.886 189.574 277.086V277.192L189.679 277.498L189.785 277.804V278.11L189.89 278.216V278.428L189.996 278.64V278.746L190.101 279.052L190.207 279.264V279.369L190.312 279.581L190.418 279.793V279.899L190.523 280.205L190.629 280.511V280.617L190.734 280.829L190.84 281.041L190.945 281.253V281.465L191.051 281.571L191.156 281.877L191.262 282.183L191.367 282.289L191.473 282.501V282.713L191.578 282.924L191.683 283.136V283.242L191.894 283.548L192 283.96L192.105 284.066L192.211 284.278L192.316 284.49V284.596L192.422 285.008H192.527C188.305 253.594 193.654 219.059 233.447 218.236C235.524 218.193 237.245 219.796 237.46 221.863L238.392 230.804C238.673 233.502 236.318 235.724 233.609 235.583C212.103 234.472 202.695 248.299 197.906 266.209L204.422 265.691C198.328 271.895 197.285 276.227 196.359 284.702C208.411 255.394 230.297 228.14 265.26 247.41C267.089 248.418 267.772 250.684 266.905 252.585L263.183 260.751C262.064 263.206 258.932 263.935 256.668 262.466C238.637 250.763 223.558 257.942 210.423 271.059L216.317 273.955C207.938 276.227 204.95 279.534 199.875 286.362C224.877 266.998 257.571 254.35 278.189 288.46C279.268 290.245 278.73 292.545 277.034 293.759L269.736 298.986C267.544 300.556 264.467 299.63 263.237 297.23C253.415 278.077 236.825 276.826 218.896 281.618L222.517 287.091C214.138 284.82 209.907 286.161 202.043 289.575C233.364 285.357 268.012 290.697 268.848 330.479C268.891 332.557 267.288 334.278 265.22 334.493L256.256 335.425C253.565 335.705 251.346 333.361 251.479 330.659C252.533 309.146 238.788 299.744 220.864 294.955L221.275 301.464C215.181 295.367 210.833 294.331 202.36 293.401C231.675 305.449 258.946 327.331 239.671 362.27C238.662 364.098 236.398 364.78 234.498 363.915L226.327 360.194C223.869 359.075 223.14 355.94 224.61 353.674C236.303 335.66 229.037 320.582 216.001 307.456L213.106 313.341C210.833 304.972 207.528 301.97 200.696 296.909C219.977 321.9 232.713 354.597 198.581 375.2C196.803 376.274 194.513 375.744 193.295 374.061L188.004 366.751C186.417 364.559 187.34 361.466 189.748 360.232C208.903 350.413 210.244 333.834 205.454 315.919L199.969 319.533C202.243 311.164 200.895 306.926 197.484 299.075C201.707 330.383 196.359 365.01 156.481 365.845C154.394 365.889 152.669 364.273 152.465 362.196L151.584 353.231C151.32 350.547 153.66 348.345 156.353 348.477C177.809 349.532 187.314 335.792 192.105 317.873L185.484 318.285C191.683 312.188 192.621 307.844 193.652 299.369C181.601 328.676 159.714 355.931 124.752 336.661C122.923 335.652 122.24 333.387 123.106 331.486L126.828 323.32C127.948 320.865 131.08 320.135 133.344 321.603C151.375 333.294 166.446 326.041 179.484 313.012L173.589 310.116C182.062 307.844 185.062 304.536 190.125 297.709C165.028 316.983 132.416 329.718 111.803 295.598C110.728 293.818 111.259 291.526 112.944 290.308L120.258 285.023C122.449 283.439 125.539 284.362 126.774 286.767C136.596 305.916 153.181 307.255 171.104 302.465L167.483 296.991C175.862 299.263 180.093 297.921 187.957 294.507C156.537 298.725 121.99 293.386 121.152 253.519C121.109 251.431 122.726 249.706 124.803 249.503L133.75 248.625C136.44 248.361 138.643 250.713 138.503 253.413C137.39 274.848 151.214 284.339 169.136 289.128L168.62 282.512C174.819 288.716 179.167 289.646 187.64 290.682C158.325 278.634 131.054 256.752 150.329 221.812C151.338 219.984 153.602 219.302 155.502 220.167L163.673 223.888C166.131 225.007 166.86 228.143 165.389 230.407C153.683 248.421 160.865 263.493 173.999 276.521L176.894 270.635C179.167 279.111 182.472 282.1 189.304 287.174C183.105 279.111 177.515 270.329 174.105 261.336L174.058 261.23Z"/>
</mask>
<path fill-rule="evenodd" clip-rule="evenodd" d="M174.058 261.23L173.952 261.124C173.647 260.3 173.331 259.37 173.026 258.546C172.101 255.862 171.374 253.167 170.858 250.589V250.377C170.753 249.965 170.753 249.659 170.647 249.341V248.929C170.542 248.623 170.542 248.305 170.436 247.999V247.587L170.331 246.657L170.225 246.139V245.315L170.12 244.691V239.736C170.12 239.524 170.225 239.324 170.225 239.112V238.488C170.331 237.97 170.331 237.558 170.436 237.146C170.436 236.84 170.542 236.628 170.542 236.428C170.542 236.228 170.647 236.016 170.647 235.804C170.753 235.498 170.753 235.286 170.858 234.98C170.858 234.874 170.858 234.674 170.964 234.462C170.964 234.25 171.069 233.944 171.069 233.744C171.175 233.532 171.175 233.332 171.28 233.026L171.491 232.402C171.491 232.19 171.597 231.99 171.702 231.778C171.702 231.567 171.808 231.366 171.913 231.155L172.124 230.437L172.335 229.813L172.64 229.095L172.851 228.471C172.956 228.259 173.061 228.059 173.155 227.753L173.46 227.235C173.565 227.023 173.671 226.717 173.765 226.517L174.069 225.893C174.175 225.681 174.374 225.481 174.48 225.175C174.585 225.069 174.69 224.869 174.784 224.657C174.995 224.445 175.089 224.139 175.3 223.833C175.405 223.727 175.511 223.527 175.511 223.421C175.722 223.115 175.921 222.903 176.132 222.597C176.237 222.491 176.343 222.291 176.437 222.185C176.648 221.773 176.952 221.361 177.269 220.949L177.48 220.737C177.691 220.431 177.995 220.113 178.312 219.701C178.417 219.595 178.523 219.395 178.722 219.289C178.933 218.983 179.132 218.771 179.343 218.571C179.449 218.359 179.648 218.159 179.753 218.053C179.964 217.841 180.163 217.535 180.374 217.335C180.585 217.229 180.785 217.029 180.995 216.817L181.617 216.193L182.132 215.675C182.437 215.464 182.648 215.263 182.859 215.052L183.48 214.534L184.207 213.91L184.828 213.392C185.039 213.18 185.343 212.98 185.66 212.768L186.175 212.25L187.101 211.626L187.722 211.214C188.027 210.908 188.343 210.696 188.754 210.496C188.965 210.39 189.058 210.19 189.269 210.084C189.679 209.872 190.101 209.672 190.406 209.366L190.922 209.06C191.332 208.848 191.754 208.542 192.164 208.342L192.785 208.036C193.794 207.437 195.048 207.705 195.732 208.659L201.891 217.256C203.463 219.448 202.536 222.527 200.135 223.757C180.972 233.574 179.719 250.159 184.511 268.081L189.996 264.467L189.89 264.985L189.785 265.197V265.409L189.679 265.621L189.574 265.927V266.033L189.468 266.339V266.751L189.363 266.857V267.269L189.258 267.375V267.787L189.152 268.093V268.399L189.047 268.611V269.129L188.941 269.435V270.259L188.836 270.671V272.224V272.942L188.941 273.154V273.778V274.19L189.047 274.296V274.92C189.152 275.332 189.258 275.638 189.258 275.956V276.062L189.363 276.368C189.468 276.58 189.468 276.886 189.574 277.086V277.192L189.679 277.498L189.785 277.804V278.11L189.89 278.216V278.428L189.996 278.64V278.746L190.101 279.052L190.207 279.264V279.369L190.312 279.581L190.418 279.793V279.899L190.523 280.205L190.629 280.511V280.617L190.734 280.829L190.84 281.041L190.945 281.253V281.465L191.051 281.571L191.156 281.877L191.262 282.183L191.367 282.289L191.473 282.501V282.713L191.578 282.924L191.683 283.136V283.242L191.894 283.548L192 283.96L192.105 284.066L192.211 284.278L192.316 284.49V284.596L192.422 285.008H192.527C188.305 253.594 193.654 219.059 233.447 218.236C235.524 218.193 237.245 219.796 237.46 221.863L238.392 230.804C238.673 233.502 236.318 235.724 233.609 235.583C212.103 234.472 202.695 248.299 197.906 266.209L204.422 265.691C198.328 271.895 197.285 276.227 196.359 284.702C208.411 255.394 230.297 228.14 265.26 247.41C267.089 248.418 267.772 250.684 266.905 252.585L263.183 260.751C262.064 263.206 258.932 263.935 256.668 262.466C238.637 250.763 223.558 257.942 210.423 271.059L216.317 273.955C207.938 276.227 204.95 279.534 199.875 286.362C224.877 266.998 257.571 254.35 278.189 288.46C279.268 290.245 278.73 292.545 277.034 293.759L269.736 298.986C267.544 300.556 264.467 299.63 263.237 297.23C253.415 278.077 236.825 276.826 218.896 281.618L222.517 287.091C214.138 284.82 209.907 286.161 202.043 289.575C233.364 285.357 268.012 290.697 268.848 330.479C268.891 332.557 267.288 334.278 265.22 334.493L256.256 335.425C253.565 335.705 251.346 333.361 251.479 330.659C252.533 309.146 238.788 299.744 220.864 294.955L221.275 301.464C215.181 295.367 210.833 294.331 202.36 293.401C231.675 305.449 258.946 327.331 239.671 362.27C238.662 364.098 236.398 364.78 234.498 363.915L226.327 360.194C223.869 359.075 223.14 355.94 224.61 353.674C236.303 335.66 229.037 320.582 216.001 307.456L213.106 313.341C210.833 304.972 207.528 301.97 200.696 296.909C219.977 321.9 232.713 354.597 198.581 375.2C196.803 376.274 194.513 375.744 193.295 374.061L188.004 366.751C186.417 364.559 187.34 361.466 189.748 360.232C208.903 350.413 210.244 333.834 205.454 315.919L199.969 319.533C202.243 311.164 200.895 306.926 197.484 299.075C201.707 330.383 196.359 365.01 156.481 365.845C154.394 365.889 152.669 364.273 152.465 362.196L151.584 353.231C151.32 350.547 153.66 348.345 156.353 348.477C177.809 349.532 187.314 335.792 192.105 317.873L185.484 318.285C191.683 312.188 192.621 307.844 193.652 299.369C181.601 328.676 159.714 355.931 124.752 336.661C122.923 335.652 122.24 333.387 123.106 331.486L126.828 323.32C127.948 320.865 131.08 320.135 133.344 321.603C151.375 333.294 166.446 326.041 179.484 313.012L173.589 310.116C182.062 307.844 185.062 304.536 190.125 297.709C165.028 316.983 132.416 329.718 111.803 295.598C110.728 293.818 111.259 291.526 112.944 290.308L120.258 285.023C122.449 283.439 125.539 284.362 126.774 286.767C136.596 305.916 153.181 307.255 171.104 302.465L167.483 296.991C175.862 299.263 180.093 297.921 187.957 294.507C156.537 298.725 121.99 293.386 121.152 253.519C121.109 251.431 122.726 249.706 124.803 249.503L133.75 248.625C136.44 248.361 138.643 250.713 138.503 253.413C137.39 274.848 151.214 284.339 169.136 289.128L168.62 282.512C174.819 288.716 179.167 289.646 187.64 290.682C158.325 278.634 131.054 256.752 150.329 221.812C151.338 219.984 153.602 219.302 155.502 220.167L163.673 223.888C166.131 225.007 166.86 228.143 165.389 230.407C153.683 248.421 160.865 263.493 173.999 276.521L176.894 270.635C179.167 279.111 182.472 282.1 189.304 287.174C183.105 279.111 177.515 270.329 174.105 261.336L174.058 261.23Z" fill="url(#paint1_linear_4142_4423)"/>
<path fill-rule="evenodd" clip-rule="evenodd" d="M174.058 261.23L173.952 261.124C173.647 260.3 173.331 259.37 173.026 258.546C172.101 255.862 171.374 253.167 170.858 250.589V250.377C170.753 249.965 170.753 249.659 170.647 249.341V248.929C170.542 248.623 170.542 248.305 170.436 247.999V247.587L170.331 246.657L170.225 246.139V245.315L170.12 244.691V239.736C170.12 239.524 170.225 239.324 170.225 239.112V238.488C170.331 237.97 170.331 237.558 170.436 237.146C170.436 236.84 170.542 236.628 170.542 236.428C170.542 236.228 170.647 236.016 170.647 235.804C170.753 235.498 170.753 235.286 170.858 234.98C170.858 234.874 170.858 234.674 170.964 234.462C170.964 234.25 171.069 233.944 171.069 233.744C171.175 233.532 171.175 233.332 171.28 233.026L171.491 232.402C171.491 232.19 171.597 231.99 171.702 231.778C171.702 231.567 171.808 231.366 171.913 231.155L172.124 230.437L172.335 229.813L172.64 229.095L172.851 228.471C172.956 228.259 173.061 228.059 173.155 227.753L173.46 227.235C173.565 227.023 173.671 226.717 173.765 226.517L174.069 225.893C174.175 225.681 174.374 225.481 174.48 225.175C174.585 225.069 174.69 224.869 174.784 224.657C174.995 224.445 175.089 224.139 175.3 223.833C175.405 223.727 175.511 223.527 175.511 223.421C175.722 223.115 175.921 222.903 176.132 222.597C176.237 222.491 176.343 222.291 176.437 222.185C176.648 221.773 176.952 221.361 177.269 220.949L177.48 220.737C177.691 220.431 177.995 220.113 178.312 219.701C178.417 219.595 178.523 219.395 178.722 219.289C178.933 218.983 179.132 218.771 179.343 218.571C179.449 218.359 179.648 218.159 179.753 218.053C179.964 217.841 180.163 217.535 180.374 217.335C180.585 217.229 180.785 217.029 180.995 216.817L181.617 216.193L182.132 215.675C182.437 215.464 182.648 215.263 182.859 215.052L183.48 214.534L184.207 213.91L184.828 213.392C185.039 213.18 185.343 212.98 185.66 212.768L186.175 212.25L187.101 211.626L187.722 211.214C188.027 210.908 188.343 210.696 188.754 210.496C188.965 210.39 189.058 210.19 189.269 210.084C189.679 209.872 190.101 209.672 190.406 209.366L190.922 209.06C191.332 208.848 191.754 208.542 192.164 208.342L192.785 208.036C193.794 207.437 195.048 207.705 195.732 208.659L201.891 217.256C203.463 219.448 202.536 222.527 200.135 223.757C180.972 233.574 179.719 250.159 184.511 268.081L189.996 264.467L189.89 264.985L189.785 265.197V265.409L189.679 265.621L189.574 265.927V266.033L189.468 266.339V266.751L189.363 266.857V267.269L189.258 267.375V267.787L189.152 268.093V268.399L189.047 268.611V269.129L188.941 269.435V270.259L188.836 270.671V272.224V272.942L188.941 273.154V273.778V274.19L189.047 274.296V274.92C189.152 275.332 189.258 275.638 189.258 275.956V276.062L189.363 276.368C189.468 276.58 189.468 276.886 189.574 277.086V277.192L189.679 277.498L189.785 277.804V278.11L189.89 278.216V278.428L189.996 278.64V278.746L190.101 279.052L190.207 279.264V279.369L190.312 279.581L190.418 279.793V279.899L190.523 280.205L190.629 280.511V280.617L190.734 280.829L190.84 281.041L190.945 281.253V281.465L191.051 281.571L191.156 281.877L191.262 282.183L191.367 282.289L191.473 282.501V282.713L191.578 282.924L191.683 283.136V283.242L191.894 283.548L192 283.96L192.105 284.066L192.211 284.278L192.316 284.49V284.596L192.422 285.008H192.527C188.305 253.594 193.654 219.059 233.447 218.236C235.524 218.193 237.245 219.796 237.46 221.863L238.392 230.804C238.673 233.502 236.318 235.724 233.609 235.583C212.103 234.472 202.695 248.299 197.906 266.209L204.422 265.691C198.328 271.895 197.285 276.227 196.359 284.702C208.411 255.394 230.297 228.14 265.26 247.41C267.089 248.418 267.772 250.684 266.905 252.585L263.183 260.751C262.064 263.206 258.932 263.935 256.668 262.466C238.637 250.763 223.558 257.942 210.423 271.059L216.317 273.955C207.938 276.227 204.95 279.534 199.875 286.362C224.877 266.998 257.571 254.35 278.189 288.46C279.268 290.245 278.73 292.545 277.034 293.759L269.736 298.986C267.544 300.556 264.467 299.63 263.237 297.23C253.415 278.077 236.825 276.826 218.896 281.618L222.517 287.091C214.138 284.82 209.907 286.161 202.043 289.575C233.364 285.357 268.012 290.697 268.848 330.479C268.891 332.557 267.288 334.278 265.22 334.493L256.256 335.425C253.565 335.705 251.346 333.361 251.479 330.659C252.533 309.146 238.788 299.744 220.864 294.955L221.275 301.464C215.181 295.367 210.833 294.331 202.36 293.401C231.675 305.449 258.946 327.331 239.671 362.27C238.662 364.098 236.398 364.78 234.498 363.915L226.327 360.194C223.869 359.075 223.14 355.94 224.61 353.674C236.303 335.66 229.037 320.582 216.001 307.456L213.106 313.341C210.833 304.972 207.528 301.97 200.696 296.909C219.977 321.9 232.713 354.597 198.581 375.2C196.803 376.274 194.513 375.744 193.295 374.061L188.004 366.751C186.417 364.559 187.34 361.466 189.748 360.232C208.903 350.413 210.244 333.834 205.454 315.919L199.969 319.533C202.243 311.164 200.895 306.926 197.484 299.075C201.707 330.383 196.359 365.01 156.481 365.845C154.394 365.889 152.669 364.273 152.465 362.196L151.584 353.231C151.32 350.547 153.66 348.345 156.353 348.477C177.809 349.532 187.314 335.792 192.105 317.873L185.484 318.285C191.683 312.188 192.621 307.844 193.652 299.369C181.601 328.676 159.714 355.931 124.752 336.661C122.923 335.652 122.24 333.387 123.106 331.486L126.828 323.32C127.948 320.865 131.08 320.135 133.344 321.603C151.375 333.294 166.446 326.041 179.484 313.012L173.589 310.116C182.062 307.844 185.062 304.536 190.125 297.709C165.028 316.983 132.416 329.718 111.803 295.598C110.728 293.818 111.259 291.526 112.944 290.308L120.258 285.023C122.449 283.439 125.539 284.362 126.774 286.767C136.596 305.916 153.181 307.255 171.104 302.465L167.483 296.991C175.862 299.263 180.093 297.921 187.957 294.507C156.537 298.725 121.99 293.386 121.152 253.519C121.109 251.431 122.726 249.706 124.803 249.503L133.75 248.625C136.44 248.361 138.643 250.713 138.503 253.413C137.39 274.848 151.214 284.339 169.136 289.128L168.62 282.512C174.819 288.716 179.167 289.646 187.64 290.682C158.325 278.634 131.054 256.752 150.329 221.812C151.338 219.984 153.602 219.302 155.502 220.167L163.673 223.888C166.131 225.007 166.86 228.143 165.389 230.407C153.683 248.421 160.865 263.493 173.999 276.521L176.894 270.635C179.167 279.111 182.472 282.1 189.304 287.174C183.105 279.111 177.515 270.329 174.105 261.336L174.058 261.23Z" stroke="url(#paint2_linear_4142_4423)" stroke-width="4" mask="url(#path-2-inside-1_4142_4423)"/>
</g>
<defs>
<filter id="filter0_f_4142_4423" x="89.2451" y="179.718" width="211.502" height="212.04" filterUnits="userSpaceOnUse" color-interpolation-filters="sRGB">
<feFlood flood-opacity="0" result="BackgroundImageFix"/>
<feBlend mode="normal" in="SourceGraphic" in2="BackgroundImageFix" result="shape"/>
<feGaussianBlur stdDeviation="11" result="effect1_foregroundBlur_4142_4423"/>
</filter>
<filter id="filter1_dd_4142_4423" x="-62.7549" y="0.717773" width="515.502" height="516.04" filterUnits="userSpaceOnUse" color-interpolation-filters="sRGB">
<feFlood flood-opacity="0" result="BackgroundImageFix"/>
<feColorMatrix in="SourceAlpha" type="matrix" values="0 0 0 0 0 0 0 0 0 0 0 0 0 0 0 0 0 0 127 0" result="hardAlpha"/>
<feOffset dy="-33"/>
<feGaussianBlur stdDeviation="87"/>
<feComposite in2="hardAlpha" operator="out"/>
<feColorMatrix type="matrix" values="0 0 0 0 0.385251 0 0 0 0 0.295833 0 0 0 0 1 0 0 0 1 0"/>
<feBlend mode="normal" in2="BackgroundImageFix" result="effect1_dropShadow_4142_4423"/>
<feColorMatrix in="SourceAlpha" type="matrix" values="0 0 0 0 0 0 0 0 0 0 0 0 0 0 0 0 0 0 127 0" result="hardAlpha"/>
<feOffset dy="-33"/>
<feGaussianBlur stdDeviation="87"/>
<feComposite in2="hardAlpha" operator="out"/>
<feColorMatrix type="matrix" values="0 0 0 0 0.385251 0 0 0 0 0.295833 0 0 0 0 1 0 0 0 1 0"/>
<feBlend mode="normal" in2="effect1_dropShadow_4142_4423" result="effect2_dropShadow_4142_4423"/>
<feBlend mode="normal" in="SourceGraphic" in2="effect2_dropShadow_4142_4423" result="shape"/>
</filter>
<linearGradient id="paint0_linear_4142_4423" x1="195" y1="201" x2="195" y2="371" gradientUnits="userSpaceOnUse">
<stop offset="0.238159" stop-color="#9E91FF"/>
<stop offset="0.45" stop-color="#6C5DD3"/>
<stop offset="0.632421" stop-color="#3D21FF" stop-opacity="0"/>
</linearGradient>
<linearGradient id="paint1_linear_4142_4423" x1="195" y1="207" x2="195" y2="377" gradientUnits="userSpaceOnUse">
<stop offset="0.238159" stop-color="#9E91FF"/>
<stop offset="0.45" stop-color="#6C5DD3"/>
<stop offset="1" stop-color="#3D21FF"/>
</linearGradient>
<linearGradient id="paint2_linear_4142_4423" x1="195" y1="207" x2="195" y2="377" gradientUnits="userSpaceOnUse">
<stop stop-color="white"/>
<stop offset="0.55" stop-color="white" stop-opacity="0"/>
</linearGradient>
</defs>
</svg>
