<svg width="42" height="33" viewBox="0 0 42 33" fill="none" xmlns="http://www.w3.org/2000/svg">
<path d="M16.3506 8.5166C16.4724 8.39844 16.4188 8.3849 17.4082 8.7002L18.2754 8.96289L18.5605 9.83105C19.0486 11.2895 19.5776 12.1829 21.0146 13.8779C22.2484 15.3629 23.7257 16.8879 24.5664 17.5713L25.3398 18.2021V24.8125C25.3398 28.7025 25.3684 31.1399 25.293 31.4785C25.2251 31.5179 24.9467 31.5012 24.7705 31.4355C24.5942 31.3698 23.9973 31.186 23.4414 31.0283C22.8857 30.8707 22.3028 30.6874 22.1533 30.6348C21.7872 30.4902 21.3258 30.3451 19.6445 29.8457C18.8586 29.6093 18.0997 29.373 17.9502 29.3203C17.8011 29.2678 17.435 29.1496 17.1367 29.0576C16.8388 28.9657 16.5135 28.8343 16.4316 28.7686C16.2961 28.6634 16.2549 26.4682 16.2549 18.6094C16.2549 13.1029 16.2964 8.55603 16.3506 8.5166ZM33.9766 9.46289C34.1257 8.72697 35.2645 8.46367 36.0645 8.98926C37.0271 9.60692 36.9864 9.22611 37 18.793C37 27.2695 36.9996 27.4017 36.7148 27.9668C36.5521 28.2821 36.2677 28.6239 36.0645 28.7158C35.8744 28.8079 34.7083 29.2019 33.4746 29.583C32.2422 29.9506 31.1179 30.3179 30.9668 30.3711C30.3435 30.5944 27.2302 31.4774 26.9883 31.4785C26.8798 31.4785 26.9668 24.8516 26.9668 24.8516C26.9668 20.8705 26.9883 18.3971 26.9883 18.2021C26.9883 18.008 30.9391 14.5877 32.417 12.6689C33.0271 11.8673 33.8002 10.2646 33.9766 9.46289ZM14.2891 8.48047C14.628 8.48047 14.5394 9.71277 14.5801 18.4521C14.5936 25.1647 14.6279 28.5188 14.6279 28.8496C13.9497 29.1782 8.59235 30.8752 7.19043 31.1602C6.01693 31.3987 5 31.0698 5 30.7412C5 30.7205 5.0004 29.0474 5.00781 20.9229V20.8604C5.0482 12.1304 5.04901 11.9852 5.33301 11.6182C5.57706 11.3028 6.18706 11.0528 9.875 9.84375C12.2196 9.06871 14.1791 8.46785 14.2891 8.48047ZM25.3721 1.5C28.049 1.5 28.0041 1.59886 28.7832 1.86621C30.3153 2.39189 31.36 3.31265 32.0244 4.74512C32.7292 6.24308 32.837 7.54433 32.3896 9.14746C31.9422 10.7375 31.0065 12.1308 28.6475 14.667C27.2513 16.1648 26.4787 16.8348 26.1396 16.835C25.8414 16.835 23.062 14.0357 21.8281 12.498C21.2724 11.8149 20.6488 10.8825 20.4316 10.4355C19.4284 8.38562 19.4007 6.24324 20.3359 4.45605C21.0274 3.14192 22.695 1.50013 25.3721 1.5ZM26.0146 4.67578C24.517 4.67578 23.3027 5.85307 23.3027 7.30469C23.303 8.7561 24.5172 9.93262 26.0146 9.93262C27.5119 9.93231 28.7263 8.75591 28.7266 7.30469C28.7266 5.85326 27.512 4.67609 26.0146 4.67578Z" fill="white"/>
</svg>
