<svg width="24" height="25" viewBox="0 0 24 25" fill="none" xmlns="http://www.w3.org/2000/svg">
<mask id="mask0_4142_8774" style="mask-type:alpha" maskUnits="userSpaceOnUse" x="0" y="0" width="24" height="25">
<rect y="0.5" width="24" height="24" fill="#D9D9D9"/>
</mask>
<g mask="url(#mask0_4142_8774)">
<path d="M12 22.5C10.2333 22.5 8.79167 22.2208 7.675 21.6625C6.55833 21.1042 6 20.3833 6 19.5C6 19.1833 6.07083 18.8917 6.2125 18.625C6.35417 18.3583 6.56667 18.1083 6.85 17.875C7.08333 17.7083 7.3375 17.6417 7.6125 17.675C7.8875 17.7083 8.10833 17.8417 8.275 18.075C8.44167 18.3083 8.50417 18.5625 8.4625 18.8375C8.42083 19.1125 8.28333 19.3333 8.05 19.5C8.26667 19.7667 8.76667 20 9.55 20.2C10.3333 20.4 11.15 20.5 12 20.5C12.85 20.5 13.6667 20.4 14.45 20.2C15.2333 20 15.7333 19.7667 15.95 19.5C15.7167 19.3333 15.5792 19.1125 15.5375 18.8375C15.4958 18.5625 15.5583 18.3083 15.725 18.075C15.8917 17.8417 16.1125 17.7083 16.3875 17.675C16.6625 17.6417 16.9167 17.7083 17.15 17.875C17.4333 18.1083 17.6458 18.3583 17.7875 18.625C17.9292 18.8917 18 19.1833 18 19.5C18 20.3833 17.4417 21.1042 16.325 21.6625C15.2083 22.2208 13.7667 22.5 12 22.5ZM12.025 17C13.675 15.7833 14.9167 14.5625 15.75 13.3375C16.5833 12.1125 17 10.8833 17 9.65C17 7.95 16.4583 6.66667 15.375 5.8C14.2917 4.93333 13.1667 4.5 12 4.5C10.8333 4.5 9.70833 4.93333 8.625 5.8C7.54167 6.66667 7 7.95 7 9.65C7 10.7667 7.40833 11.9292 8.225 13.1375C9.04167 14.3458 10.3083 15.6333 12.025 17ZM12 19.025C11.8 19.025 11.6 18.9917 11.4 18.925C11.2 18.8583 11.0167 18.7583 10.85 18.625C8.88333 17.0583 7.41667 15.5292 6.45 14.0375C5.48333 12.5458 5 11.0833 5 9.65C5 8.46667 5.2125 7.42917 5.6375 6.5375C6.0625 5.64583 6.60833 4.9 7.275 4.3C7.94167 3.7 8.69167 3.25 9.525 2.95C10.3583 2.65 11.1833 2.5 12 2.5C12.8167 2.5 13.6417 2.65 14.475 2.95C15.3083 3.25 16.0583 3.7 16.725 4.3C17.3917 4.9 17.9375 5.64583 18.3625 6.5375C18.7875 7.42917 19 8.46667 19 9.65C19 11.0833 18.5167 12.5458 17.55 14.0375C16.5833 15.5292 15.1167 17.0583 13.15 18.625C12.9833 18.7583 12.8 18.8583 12.6 18.925C12.4 18.9917 12.2 19.025 12 19.025ZM12 11.5C12.55 11.5 13.0208 11.3042 13.4125 10.9125C13.8042 10.5208 14 10.05 14 9.5C14 8.95 13.8042 8.47917 13.4125 8.0875C13.0208 7.69583 12.55 7.5 12 7.5C11.45 7.5 10.9792 7.69583 10.5875 8.0875C10.1958 8.47917 10 8.95 10 9.5C10 10.05 10.1958 10.5208 10.5875 10.9125C10.9792 11.3042 11.45 11.5 12 11.5Z" fill="#828289"/>
</g>
</svg>
