<svg width="32" height="32" viewBox="0 0 32 32" fill="none" xmlns="http://www.w3.org/2000/svg">
<mask id="mask0_2073_10948" style="mask-type:alpha" maskUnits="userSpaceOnUse" x="0" y="0" width="32" height="32">
<rect width="32" height="32" fill="#D9D9D9"/>
</mask>
<g mask="url(#mask0_2073_10948)">
<path d="M16.0003 29.3337C13.6448 29.3337 11.7225 28.9614 10.2337 28.217C8.74477 27.4725 8.00033 26.5114 8.00033 25.3337C8.00033 24.9114 8.09477 24.5225 8.28366 24.167C8.47255 23.8114 8.75588 23.4781 9.13366 23.167C9.44477 22.9448 9.78366 22.8559 10.1503 22.9003C10.517 22.9448 10.8114 23.1225 11.0337 23.4337C11.2559 23.7448 11.3392 24.0837 11.2837 24.4503C11.2281 24.817 11.0448 25.1114 10.7337 25.3337C11.0225 25.6892 11.6892 26.0003 12.7337 26.267C13.7781 26.5337 14.867 26.667 16.0003 26.667C17.1337 26.667 18.2225 26.5337 19.267 26.267C20.3114 26.0003 20.9781 25.6892 21.267 25.3337C20.9559 25.1114 20.7725 24.817 20.717 24.4503C20.6614 24.0837 20.7448 23.7448 20.967 23.4337C21.1892 23.1225 21.4837 22.9448 21.8503 22.9003C22.217 22.8559 22.5559 22.9448 22.867 23.167C23.2448 23.4781 23.5281 23.8114 23.717 24.167C23.9059 24.5225 24.0003 24.9114 24.0003 25.3337C24.0003 26.5114 23.2559 27.4725 21.767 28.217C20.2781 28.9614 18.3559 29.3337 16.0003 29.3337ZM16.0337 22.0003C18.2337 20.3781 19.8892 18.7503 21.0003 17.117C22.1114 15.4837 22.667 13.8448 22.667 12.2003C22.667 9.93366 21.9448 8.22255 20.5003 7.06699C19.0559 5.91144 17.5559 5.33366 16.0003 5.33366C14.4448 5.33366 12.9448 5.91144 11.5003 7.06699C10.0559 8.22255 9.33366 9.93366 9.33366 12.2003C9.33366 13.6892 9.8781 15.2392 10.967 16.8503C12.0559 18.4614 13.7448 20.1781 16.0337 22.0003ZM16.0003 24.7003C15.7337 24.7003 15.467 24.6559 15.2003 24.567C14.9337 24.4781 14.6892 24.3448 14.467 24.167C11.8448 22.0781 9.88921 20.0392 8.60033 18.0503C7.31144 16.0614 6.66699 14.1114 6.66699 12.2003C6.66699 10.6225 6.95033 9.23921 7.51699 8.05032C8.08366 6.86144 8.81144 5.86699 9.70033 5.06699C10.5892 4.26699 11.5892 3.66699 12.7003 3.26699C13.8114 2.86699 14.9114 2.66699 16.0003 2.66699C17.0892 2.66699 18.1892 2.86699 19.3003 3.26699C20.4114 3.66699 21.4114 4.26699 22.3003 5.06699C23.1892 5.86699 23.917 6.86144 24.4837 8.05032C25.0503 9.23921 25.3337 10.6225 25.3337 12.2003C25.3337 14.1114 24.6892 16.0614 23.4003 18.0503C22.1114 20.0392 20.1559 22.0781 17.5337 24.167C17.3114 24.3448 17.067 24.4781 16.8003 24.567C16.5337 24.6559 16.267 24.7003 16.0003 24.7003ZM16.0003 14.667C16.7337 14.667 17.3614 14.4059 17.8837 13.8837C18.4059 13.3614 18.667 12.7337 18.667 12.0003C18.667 11.267 18.4059 10.6392 17.8837 10.117C17.3614 9.59477 16.7337 9.33366 16.0003 9.33366C15.267 9.33366 14.6392 9.59477 14.117 10.117C13.5948 10.6392 13.3337 11.267 13.3337 12.0003C13.3337 12.7337 13.5948 13.3614 14.117 13.8837C14.6392 14.4059 15.267 14.667 16.0003 14.667Z" fill="white"/>
</g>
</svg>
