<svg width="343" height="177" viewBox="0 0 343 177" fill="none" xmlns="http://www.w3.org/2000/svg">
<path fill-rule="evenodd" clip-rule="evenodd" d="M129.246 109.417L129.033 109.203C128.418 107.541 127.78 105.665 127.165 104.002C125.297 98.587 123.831 93.1482 122.791 87.9469V87.5194C122.578 86.6881 122.578 86.0706 122.365 85.4294V84.5981C122.152 83.9806 122.152 83.3394 121.939 82.7219V81.8906L121.726 80.0143L121.514 78.9693V77.3068L121.301 76.0481V66.0492C121.301 65.6217 121.514 65.218 121.514 64.7905V63.5317C121.726 62.4867 121.726 61.6554 121.939 60.8242C121.939 60.2067 122.152 59.7792 122.152 59.3754C122.152 58.9717 122.365 58.5442 122.365 58.1167C122.578 57.4992 122.578 57.0717 122.791 56.4542C122.791 56.2404 122.791 55.8367 123.003 55.4092C123.003 54.9817 123.216 54.3641 123.216 53.9604C123.429 53.5329 123.429 53.1291 123.642 52.5116L124.067 51.2529C124.067 50.8254 124.28 50.4216 124.493 49.9941C124.493 49.5666 124.706 49.1629 124.919 48.7354L125.344 47.2866L125.77 46.0278L126.385 44.5791L126.81 43.3203C127.023 42.8928 127.236 42.4891 127.425 41.8716L128.04 40.8265C128.253 40.399 128.465 39.7815 128.655 39.3778L129.269 38.119C129.482 37.6915 129.884 37.2878 130.097 36.6703C130.31 36.4565 130.523 36.0528 130.712 35.6253C131.137 35.1978 131.326 34.5802 131.752 33.9627C131.965 33.749 132.178 33.3452 132.178 33.1315C132.603 32.514 133.005 32.0865 133.431 31.469C133.644 31.2552 133.857 30.8515 134.046 30.6377C134.471 29.8065 135.086 28.9752 135.725 28.144L136.15 27.7165C136.576 27.0989 137.191 26.4577 137.829 25.6264C138.042 25.4127 138.255 25.0089 138.657 24.7952C139.082 24.1777 139.484 23.7502 139.91 23.3464C140.123 22.9189 140.525 22.5152 140.737 22.3014C141.163 21.8739 141.565 21.2564 141.991 20.8527C142.416 20.6389 142.818 20.2351 143.244 19.8076L144.497 18.5489L145.537 17.5039C146.152 17.0764 146.578 16.6726 147.003 16.2451L148.257 15.2001L149.723 13.9414L150.976 12.8963C151.401 12.4688 152.016 12.0651 152.655 11.6376L153.695 10.5926L155.563 9.33382L156.816 8.50256C157.431 7.88506 158.069 7.45755 158.897 7.0538C159.323 6.84005 159.512 6.4363 159.937 6.22255C160.765 5.79504 161.616 5.39129 162.231 4.77379L163.271 4.15628C164.099 3.72878 164.95 3.11127 165.778 2.70752L167.031 2.09002C168.071 1.47251 169.325 0.641255 170.578 0L191.646 29.4027C143.669 48.3791 139.91 84.2419 150.337 123.24L161.403 115.948L161.191 116.993L160.978 117.421V117.848L160.765 118.276L160.552 118.893V119.107L160.339 119.725V120.556L160.127 120.77V121.601L159.914 121.815V122.646L159.701 123.263V123.881L159.488 124.308V125.353L159.275 125.971V127.633L159.063 128.465V131.6V133.048L159.275 133.476V134.735V135.566L159.488 135.78V137.039C159.701 137.87 159.914 138.487 159.914 139.129V139.342L160.127 139.96C160.339 140.387 160.339 141.005 160.552 141.409V141.622L160.765 142.24L160.978 142.857V143.475L161.191 143.689V144.116L161.403 144.544V144.757L161.616 145.375L161.829 145.802V146.016L162.042 146.444L162.255 146.871V147.085L162.467 147.702L162.68 148.32V148.534L162.893 148.961L163.106 149.389L163.319 149.816V150.244L163.532 150.457L163.744 151.075L163.957 151.692L164.17 151.906L164.383 152.334V152.761L164.596 153.189L164.808 153.616V153.83L165.234 154.447L165.447 155.279L165.66 155.492L165.872 155.92L166.085 156.347V156.561L166.298 157.392H166.511C157.738 92.1269 169.443 20.1876 256.411 22.7052L260.17 58.7817C209.073 51.0629 187.792 80.4656 177.364 119.463L190.511 118.418C178.215 130.935 176.111 139.675 174.243 156.775C199.283 95.8795 245.368 39.3778 319.638 85.2631L304.624 118.205C264.355 86.0944 231.205 100.701 202.617 129.248L214.511 135.091C197.605 139.675 191.575 146.349 181.337 160.124C233.285 119.891 301.692 94.0269 343 170.764L313.585 191.83C294.598 143.879 258.728 140.126 219.713 150.552L227.019 161.596C210.113 157.012 201.577 159.72 185.711 166.607C250.783 157.844 322.972 169.529 320.466 256.478L284.383 260.231C291.902 209.144 262.7 187.888 223.685 177.461L224.513 190.595C212.217 178.293 203.445 176.203 186.349 174.326C247.26 199.359 303.796 245.434 257.9 319.654L224.939 304.643C257.073 264.411 242.247 231.255 213.873 202.684L208.032 214.559C203.445 197.673 196.777 191.616 182.992 181.404C223.047 233.322 249.104 301.722 172.351 343L151.07 313.597C199.047 294.621 203.019 258.758 192.592 219.76L181.526 227.052C186.113 210.165 183.394 201.615 176.513 185.774C185.285 250.826 173.581 322.979 86.4003 320.461L82.8534 284.385C133.738 291.89 155.232 262.701 165.66 223.703L152.3 224.534C164.808 212.232 166.7 203.468 168.781 186.368C143.74 247.263 97.6555 303.765 23.3853 257.879L38.4001 224.938C78.6682 257.048 111.819 242.252 140.194 213.894L128.3 208.052C145.396 203.468 151.449 196.794 161.664 183.019C109.525 223.062 41.3085 249.116 0 172.379L29.4149 151.122C48.4021 199.074 84.2722 203.04 123.287 192.614L115.981 181.57C132.887 186.154 141.423 183.446 157.289 176.559C92.0042 185.323 20.0276 173.638 22.5341 86.4744L58.6169 82.9356C50.9085 133.808 80.2998 155.279 119.315 165.705L118.274 152.357C130.783 164.874 139.555 166.75 156.651 168.84C95.7402 143.807 39.2041 97.732 85.0998 23.5127L118.061 38.5228C85.9273 78.7556 100.54 111.911 129.127 140.269L134.968 128.393C139.555 145.494 146.223 151.526 160.008 161.762C147.5 145.494 136.221 127.776 129.34 109.631L129.246 109.417Z" fill="#9287DE" fill-opacity="0.05"/>
</svg>
