<svg width="24" height="24" viewBox="0 0 24 24" fill="none" xmlns="http://www.w3.org/2000/svg">
<g clip-path="url(#clip0_4017_5078)">
<mask id="path-1-inside-1_4017_5078" fill="white">
<path d="M19.5216 0.131836C19.6445 0.131963 19.7511 0.217403 19.7784 0.336914C19.8056 0.456533 19.7464 0.57932 19.6359 0.632812C19.0323 0.923384 18.7257 1.45734 18.7257 2.21973C18.7257 2.36157 18.8407 2.47656 18.9825 2.47656H22.3907C22.8273 2.47656 23.1808 2.83009 23.1808 3.2666V6.97559C23.1808 9.43363 21.4343 11.4579 19.0886 11.8701C18.6756 11.9427 18.3149 12.2117 18.1442 12.5948C17.4576 14.1363 16.2096 15.3747 14.6608 16.0473C14.1374 16.2745 13.8117 16.8436 13.9799 17.3888L14.6302 19.496C14.7595 19.9152 15.147 20.2012 15.5857 20.2012H16.0597C17.251 20.2014 18.2874 20.9659 18.6388 22.1045L19.0695 23.5C19.0942 23.5801 19.0792 23.6669 19.0294 23.7344C18.9796 23.8018 18.9013 23.8408 18.8175 23.8408H5.1554C5.07173 23.8407 4.99321 23.8017 4.94348 23.7344C4.89386 23.667 4.87969 23.58 4.90442 23.5L5.33411 22.1045C5.68553 20.9657 6.72266 20.2012 7.91418 20.2012H8.38797C8.82676 20.2012 9.21429 19.9151 9.34358 19.4958L9.99329 17.3886C10.1614 16.8435 9.83565 16.2746 9.31241 16.0474C7.76355 15.3748 6.51539 14.1363 5.82868 12.5948C5.65802 12.2117 5.29732 11.9427 4.88428 11.8701C2.53856 11.4578 0.792114 9.43362 0.792114 6.97559V3.2666C0.792114 2.83018 1.14576 2.47671 1.58215 2.47656H4.99036C5.1322 2.47656 5.24719 2.36157 5.24719 2.21973C5.24719 1.45738 4.94148 0.923394 4.33801 0.632812C4.2272 0.579382 4.16821 0.456677 4.19543 0.336914C4.22283 0.217313 4.32925 0.131836 4.45227 0.131836H19.5216ZM3.37317 4.05664C2.82088 4.05664 2.37317 4.50436 2.37317 5.05664V6.97559C2.37317 8.52515 3.39047 9.82083 4.80744 10.231C5.03915 10.2981 5.24719 10.1026 5.24719 9.86133V5.05664C5.24719 4.50436 4.79948 4.05664 4.24719 4.05664H3.37317ZM18.7267 9.86133C18.7267 10.1025 18.9347 10.298 19.1664 10.231C20.5832 9.82077 21.6007 8.52511 21.6007 6.97559V5.05664C21.6007 4.50436 21.153 4.05664 20.6007 4.05664H19.7267C19.1744 4.05664 18.7267 4.50436 18.7267 5.05664V9.86133Z"/>
</mask>
<path d="M19.5216 0.131836C19.6445 0.131963 19.7511 0.217403 19.7784 0.336914C19.8056 0.456533 19.7464 0.57932 19.6359 0.632812C19.0323 0.923384 18.7257 1.45734 18.7257 2.21973C18.7257 2.36157 18.8407 2.47656 18.9825 2.47656H22.3907C22.8273 2.47656 23.1808 2.83009 23.1808 3.2666V6.97559C23.1808 9.43363 21.4343 11.4579 19.0886 11.8701C18.6756 11.9427 18.3149 12.2117 18.1442 12.5948C17.4576 14.1363 16.2096 15.3747 14.6608 16.0473C14.1374 16.2745 13.8117 16.8436 13.9799 17.3888L14.6302 19.496C14.7595 19.9152 15.147 20.2012 15.5857 20.2012H16.0597C17.251 20.2014 18.2874 20.9659 18.6388 22.1045L19.0695 23.5C19.0942 23.5801 19.0792 23.6669 19.0294 23.7344C18.9796 23.8018 18.9013 23.8408 18.8175 23.8408H5.1554C5.07173 23.8407 4.99321 23.8017 4.94348 23.7344C4.89386 23.667 4.87969 23.58 4.90442 23.5L5.33411 22.1045C5.68553 20.9657 6.72266 20.2012 7.91418 20.2012H8.38797C8.82676 20.2012 9.21429 19.9151 9.34358 19.4958L9.99329 17.3886C10.1614 16.8435 9.83565 16.2746 9.31241 16.0474C7.76355 15.3748 6.51539 14.1363 5.82868 12.5948C5.65802 12.2117 5.29732 11.9427 4.88428 11.8701C2.53856 11.4578 0.792114 9.43362 0.792114 6.97559V3.2666C0.792114 2.83018 1.14576 2.47671 1.58215 2.47656H4.99036C5.1322 2.47656 5.24719 2.36157 5.24719 2.21973C5.24719 1.45738 4.94148 0.923394 4.33801 0.632812C4.2272 0.579382 4.16821 0.456677 4.19543 0.336914C4.22283 0.217313 4.32925 0.131836 4.45227 0.131836H19.5216ZM3.37317 4.05664C2.82088 4.05664 2.37317 4.50436 2.37317 5.05664V6.97559C2.37317 8.52515 3.39047 9.82083 4.80744 10.231C5.03915 10.2981 5.24719 10.1026 5.24719 9.86133V5.05664C5.24719 4.50436 4.79948 4.05664 4.24719 4.05664H3.37317ZM18.7267 9.86133C18.7267 10.1025 18.9347 10.298 19.1664 10.231C20.5832 9.82077 21.6007 8.52511 21.6007 6.97559V5.05664C21.6007 4.50436 21.153 4.05664 20.6007 4.05664H19.7267C19.1744 4.05664 18.7267 4.50436 18.7267 5.05664V9.86133Z" fill="#201E1D"/>
<path d="M19.5216 0.131836L19.5221 -0.368164H19.5216V0.131836ZM19.7784 0.336914L20.2661 0.226298L20.2658 0.225268L19.7784 0.336914ZM19.6359 0.632812L19.8528 1.08332L19.8536 1.08291L19.6359 0.632812ZM16.0597 20.2012L16.0598 19.7012H16.0597V20.2012ZM18.6388 22.1045L19.1166 21.9571L19.1166 21.957L18.6388 22.1045ZM19.0695 23.5L18.5917 23.6474L18.5918 23.6477L19.0695 23.5ZM19.0294 23.7344L19.4317 24.0313L19.4317 24.0312L19.0294 23.7344ZM5.1554 23.8408L5.15484 24.3408H5.1554V23.8408ZM4.94348 23.7344L4.54083 24.0308L4.54123 24.0313L4.94348 23.7344ZM4.90442 23.5L5.3821 23.6477L5.38228 23.6471L4.90442 23.5ZM5.33411 22.1045L4.85634 21.9571L4.85625 21.9574L5.33411 22.1045ZM1.58215 2.47656V1.97656H1.58198L1.58215 2.47656ZM4.33801 0.632812L4.12085 1.08319L4.12109 1.08331L4.33801 0.632812ZM4.19543 0.336914L3.70806 0.225268L3.70787 0.226098L4.19543 0.336914ZM19.1664 10.231L19.0274 9.75068L19.1664 10.231ZM4.80744 10.231L4.66842 10.7113L4.80744 10.231ZM5.82868 12.5948L6.28541 12.3913L5.82868 12.5948ZM4.88428 11.8701L4.79772 12.3626L4.88428 11.8701ZM9.99329 17.3886L9.51548 17.2412L9.99329 17.3886ZM9.31241 16.0474L9.11326 16.506L9.31241 16.0474ZM14.6608 16.0473L14.8599 16.5059L14.6608 16.0473ZM9.34358 19.4958L9.82138 19.6431L9.34358 19.4958ZM14.6302 19.496L15.108 19.3486L14.6302 19.496ZM19.0886 11.8701L19.0021 11.3777L19.0886 11.8701ZM18.1442 12.5948L17.6875 12.3913L18.1442 12.5948ZM19.5216 0.131836L19.5211 0.631836C19.4101 0.631721 19.3155 0.555188 19.2911 0.44856L19.7784 0.336914L20.2658 0.225268C20.1866 -0.120382 19.8789 -0.367795 19.5221 -0.368164L19.5216 0.131836ZM19.7784 0.336914L19.2908 0.44753C19.2664 0.339897 19.3195 0.23041 19.4181 0.182711L19.6359 0.632812L19.8536 1.08291C20.1734 0.92823 20.3447 0.57317 20.2661 0.226298L19.7784 0.336914ZM19.6359 0.632812L19.419 0.182306C19.035 0.36715 18.7278 0.639723 18.5208 1.00052C18.3159 1.35763 18.2257 1.77212 18.2257 2.21973H18.7257H19.2257C19.2257 1.90494 19.2888 1.67127 19.3882 1.49816C19.4854 1.32874 19.6332 1.18905 19.8528 1.08332L19.6359 0.632812ZM18.9825 2.47656V2.97656H22.3907V2.47656V1.97656H18.9825V2.47656ZM22.3907 2.47656V2.97656C22.5511 2.97656 22.6808 3.10623 22.6808 3.2666H23.1808H23.6808C23.6808 2.55394 23.1034 1.97656 22.3907 1.97656V2.47656ZM23.1808 3.2666H22.6808V6.97559H23.1808H23.6808V3.2666H23.1808ZM23.1808 6.97559H22.6808C22.6808 9.18868 21.1109 11.007 19.0021 11.3777L19.0886 11.8701L19.1752 12.3626C21.7578 11.9087 23.6808 9.67857 23.6808 6.97559H23.1808ZM18.1442 12.5948L17.6875 12.3913C17.0516 13.8188 15.8954 14.966 14.4616 15.5887L14.6608 16.0473L14.8599 16.5059C16.5237 15.7834 17.8635 14.4537 18.601 12.7982L18.1442 12.5948ZM13.9799 17.3888L13.5022 17.5362L14.1524 19.6435L14.6302 19.496L15.108 19.3486L14.4577 17.2413L13.9799 17.3888ZM15.5857 20.2012V20.7012H16.0597V20.2012V19.7012H15.5857V20.2012ZM16.0597 20.2012L16.0596 20.7012C17.0317 20.7013 17.8743 21.323 18.161 22.2519L18.6388 22.1045L19.1166 21.957C18.7004 20.6088 17.4703 19.7014 16.0598 19.7012L16.0597 20.2012ZM18.6388 22.1045L18.161 22.2519L18.5917 23.6474L19.0695 23.5L19.5472 23.3526L19.1166 21.9571L18.6388 22.1045ZM19.0695 23.5L18.5918 23.6477C18.5692 23.5747 18.5834 23.4967 18.6271 23.4375L19.0294 23.7344L19.4317 24.0312C19.575 23.8371 19.6192 23.5855 19.5471 23.3523L19.0695 23.5ZM19.0294 23.7344L18.6272 23.4374C18.6729 23.3754 18.7447 23.3408 18.8175 23.3408V23.8408V24.3408C19.0578 24.3408 19.2863 24.2282 19.4317 24.0313L19.0294 23.7344ZM18.8175 23.8408V23.3408H5.1554V23.8408V24.3408H18.8175V23.8408ZM5.1554 23.8408L5.15595 23.3408C5.22801 23.3409 5.29967 23.375 5.34573 23.4374L4.94348 23.7344L4.54123 24.0313C4.68675 24.2285 4.91546 24.3406 5.15484 24.3408L5.1554 23.8408ZM4.94348 23.7344L5.34613 23.4379C5.39199 23.5002 5.40353 23.5784 5.3821 23.6477L4.90442 23.5L4.42673 23.3523C4.35585 23.5815 4.39574 23.8337 4.54083 24.0308L4.94348 23.7344ZM4.90442 23.5L5.38228 23.6471L5.81197 22.2516L5.33411 22.1045L4.85625 21.9574L4.42656 23.3529L4.90442 23.5ZM5.33411 22.1045L5.81188 22.2519C6.09856 21.3229 6.94179 20.7012 7.91418 20.7012V20.2012V19.7012C6.50353 19.7012 5.27251 20.6084 4.85634 21.9571L5.33411 22.1045ZM7.91418 20.2012V20.7012H8.38797V20.2012V19.7012H7.91418V20.2012ZM9.34358 19.4958L9.82138 19.6431L10.4711 17.5359L9.99329 17.3886L9.51548 17.2412L8.86577 19.3485L9.34358 19.4958ZM9.31241 16.0474L9.51157 15.5887C8.07772 14.9661 6.92132 13.8188 6.28541 12.3913L5.82868 12.5948L5.37195 12.7982C6.10947 14.4538 7.44939 15.7835 9.11326 16.506L9.31241 16.0474ZM4.88428 11.8701L4.97083 11.3777C2.86203 11.007 1.29211 9.18868 1.29211 6.97559H0.792114H0.292114C0.292114 9.67856 2.21509 11.9087 4.79772 12.3626L4.88428 11.8701ZM0.792114 6.97559H1.29211V3.2666H0.792114H0.292114V6.97559H0.792114ZM0.792114 3.2666H1.29211C1.29211 3.10649 1.42177 2.97662 1.58232 2.97656L1.58215 2.47656L1.58198 1.97656C0.869752 1.9768 0.292114 2.55387 0.292114 3.2666H0.792114ZM1.58215 2.47656V2.97656H4.99036V2.47656V1.97656H1.58215V2.47656ZM5.24719 2.21973H5.74719C5.74719 1.77238 5.65734 1.35796 5.45277 1.00083C5.24604 0.63994 4.93897 0.367238 4.55493 0.182318L4.33801 0.632812L4.12109 1.08331C4.34053 1.18897 4.48805 1.32855 4.58504 1.49788C4.68419 1.67097 4.74719 1.90472 4.74719 2.21973H5.24719ZM4.33801 0.632812L4.55518 0.182436C4.65445 0.230302 4.70738 0.340482 4.683 0.447731L4.19543 0.336914L3.70787 0.226098C3.62905 0.572873 3.79996 0.928462 4.12085 1.08319L4.33801 0.632812ZM4.19543 0.336914L4.68281 0.44856C4.65851 0.554651 4.56396 0.631836 4.45227 0.631836V0.131836V-0.368164C4.09453 -0.368164 3.78716 -0.120024 3.70806 0.225268L4.19543 0.336914ZM4.45227 0.131836V0.631836H19.5216V0.131836V-0.368164H4.45227V0.131836ZM2.37317 5.05664H1.87317V6.97559H2.37317H2.87317V5.05664H2.37317ZM2.37317 6.97559H1.87317C1.87317 8.75136 3.04111 10.2402 4.66842 10.7113L4.80744 10.231L4.94646 9.7507C3.73983 9.40143 2.87317 8.29894 2.87317 6.97559H2.37317ZM5.24719 9.86133H5.74719V5.05664H5.24719H4.74719V9.86133H5.24719ZM4.24719 4.05664V3.55664H3.37317V4.05664V4.55664H4.24719V4.05664ZM19.1664 10.231L19.3055 10.7112C20.9325 10.2402 22.1007 8.75136 22.1007 6.97559H21.6007H21.1007C21.1007 8.29886 20.2339 9.40137 19.0274 9.75068L19.1664 10.231ZM21.6007 6.97559H22.1007V5.05664H21.6007H21.1007V6.97559H21.6007ZM20.6007 4.05664V3.55664H19.7267V4.05664V4.55664H20.6007V4.05664ZM18.7267 5.05664H18.2267V9.86133H18.7267H19.2267V5.05664H18.7267ZM19.7267 4.05664V3.55664C18.8983 3.55664 18.2267 4.22821 18.2267 5.05664H18.7267H19.2267C19.2267 4.7805 19.4505 4.55664 19.7267 4.55664V4.05664ZM21.6007 5.05664H22.1007C22.1007 4.22821 21.4291 3.55664 20.6007 3.55664V4.05664V4.55664C20.8769 4.55664 21.1007 4.7805 21.1007 5.05664H21.6007ZM18.7267 9.86133H18.2267C18.2267 10.3525 18.6785 10.8927 19.3055 10.7112L19.1664 10.231L19.0274 9.75068C19.0532 9.7432 19.0854 9.74164 19.1181 9.74957C19.1493 9.75716 19.1727 9.77134 19.1884 9.78498C19.2176 9.81049 19.2267 9.83934 19.2267 9.86133H18.7267ZM5.24719 5.05664H5.74719C5.74719 4.22821 5.07562 3.55664 4.24719 3.55664V4.05664V4.55664C4.52333 4.55664 4.74719 4.7805 4.74719 5.05664H5.24719ZM18.7257 2.21973H18.2257C18.2257 2.63772 18.5646 2.97656 18.9825 2.97656V2.47656V1.97656C19.1168 1.97656 19.2257 2.08543 19.2257 2.21973H18.7257ZM4.99036 2.47656V2.97656C5.40835 2.97656 5.74719 2.63772 5.74719 2.21973H5.24719H4.74719C4.74719 2.08543 4.85606 1.97656 4.99036 1.97656V2.47656ZM4.80744 10.231L4.66842 10.7113C5.29536 10.8927 5.74719 10.3525 5.74719 9.86133H5.24719H4.74719C4.74719 9.83934 4.75626 9.8105 4.78551 9.78499C4.80114 9.77136 4.82457 9.75718 4.85577 9.7496C4.88841 9.74166 4.92061 9.74321 4.94646 9.7507L4.80744 10.231ZM5.82868 12.5948L6.28541 12.3913C6.0434 11.8481 5.53852 11.4775 4.97083 11.3777L4.88428 11.8701L4.79772 12.3626C5.05613 12.408 5.27264 12.5753 5.37195 12.7982L5.82868 12.5948ZM9.99329 17.3886L10.4711 17.5359C10.728 16.7026 10.2229 15.8976 9.51157 15.5887L9.31241 16.0474L9.11326 16.506C9.4484 16.6515 9.59469 16.9843 9.51548 17.2412L9.99329 17.3886ZM14.6608 16.0473L14.4616 15.5887C13.7502 15.8976 13.245 16.7028 13.5022 17.5362L13.9799 17.3888L14.4577 17.2413C14.3784 16.9844 14.5247 16.6515 14.8599 16.5059L14.6608 16.0473ZM2.37317 5.05664H2.87317C2.87317 4.7805 3.09703 4.55664 3.37317 4.55664V4.05664V3.55664C2.54474 3.55664 1.87317 4.22821 1.87317 5.05664H2.37317ZM8.38797 20.2012V20.7012C9.04616 20.7012 9.62746 20.2721 9.82138 19.6431L9.34358 19.4958L8.86577 19.3485C8.80113 19.5581 8.60736 19.7012 8.38797 19.7012V20.2012ZM14.6302 19.496L14.1524 19.6435C14.3465 20.2723 14.9277 20.7012 15.5857 20.7012V20.2012V19.7012C15.3664 19.7012 15.1726 19.5582 15.108 19.3486L14.6302 19.496ZM19.0886 11.8701L19.0021 11.3777C18.4344 11.4775 17.9295 11.8481 17.6875 12.3913L18.1442 12.5948L18.601 12.7982C18.7003 12.5753 18.9168 12.408 19.1752 12.3626L19.0886 11.8701Z" fill="#40434F" mask="url(#path-1-inside-1_4017_5078)"/>
</g>
<defs>
<clipPath id="clip0_4017_5078">
<rect width="24" height="24" fill="white"/>
</clipPath>
</defs>
</svg>
