<svg width="13" height="4" viewBox="0 0 13 4" fill="none" xmlns="http://www.w3.org/2000/svg">
<path d="M2.176 0.654C2.52733 0.654 2.82767 0.778667 3.077 1.028C3.32633 1.27733 3.451 1.57767 3.451 1.929C3.451 2.28033 3.32633 2.58067 3.077 2.83C2.82767 3.07933 2.52733 3.204 2.176 3.204C1.82467 3.204 1.52433 3.07933 1.275 2.83C1.02567 2.58067 0.901 2.28033 0.901 1.929C0.901 1.57767 1.02 1.27733 1.258 1.028C1.50733 0.778667 1.81333 0.654 2.176 0.654ZM6.50901 0.654C6.86034 0.654 7.16067 0.778667 7.41001 1.028C7.65934 1.27733 7.78401 1.57767 7.78401 1.929C7.78401 2.28033 7.65934 2.58067 7.41001 2.83C7.16067 3.07933 6.86034 3.204 6.50901 3.204C6.15767 3.204 5.85734 3.07933 5.60801 2.83C5.35867 2.58067 5.23401 2.28033 5.23401 1.929C5.23401 1.57767 5.35301 1.27733 5.59101 1.028C5.84034 0.778667 6.14634 0.654 6.50901 0.654ZM10.842 0.654C11.1933 0.654 11.4937 0.778667 11.743 1.028C11.9923 1.27733 12.117 1.57767 12.117 1.929C12.117 2.28033 11.9923 2.58067 11.743 2.83C11.4937 3.07933 11.1933 3.204 10.842 3.204C10.4907 3.204 10.1903 3.07933 9.94102 2.83C9.69168 2.58067 9.56702 2.28033 9.56702 1.929C9.56702 1.57767 9.68602 1.27733 9.92402 1.028C10.1733 0.778667 10.4793 0.654 10.842 0.654Z" fill="white"/>
</svg>
