<svg width="17" height="16" viewBox="0 0 17 16" fill="none" xmlns="http://www.w3.org/2000/svg">
<mask id="mask0_4017_5515" style="mask-type:alpha" maskUnits="userSpaceOnUse" x="0" y="0" width="17" height="16">
<rect x="0.5" width="16" height="16" fill="#D9D9D9"/>
</mask>
<g mask="url(#mask0_4017_5515)">
<path d="M10.1333 8.00007L5.23328 12.9001C5.06662 13.0667 4.98606 13.2612 4.99162 13.4834C4.99717 13.7056 5.08328 13.9001 5.24995 14.0667C5.41662 14.2334 5.61106 14.3167 5.83328 14.3167C6.05551 14.3167 6.24995 14.2334 6.41662 14.0667L11.55 8.95007C11.6833 8.81674 11.7833 8.66674 11.85 8.50007C11.9166 8.33341 11.95 8.16674 11.95 8.00007C11.95 7.83341 11.9166 7.66674 11.85 7.50007C11.7833 7.33341 11.6833 7.18341 11.55 7.05007L6.41662 1.91674C6.24995 1.75007 6.05273 1.66952 5.82495 1.67507C5.59717 1.68063 5.39995 1.76674 5.23328 1.93341C5.06662 2.10007 4.98328 2.29452 4.98328 2.51674C4.98328 2.73896 5.06662 2.93341 5.23328 3.10007L10.1333 8.00007Z" fill="white"/>
</g>
</svg>
