<svg width="17" height="16" viewBox="0 0 17 16" fill="none" xmlns="http://www.w3.org/2000/svg">
<mask id="mask0_4017_5498" style="mask-type:alpha" maskUnits="userSpaceOnUse" x="0" y="0" width="17" height="16">
<rect x="16.5" y="16" width="16" height="16" transform="rotate(-180 16.5 16)" fill="#D9D9D9"/>
</mask>
<g mask="url(#mask0_4017_5498)">
<path d="M6.86672 7.99993L11.7667 3.09993C11.9334 2.93326 12.0139 2.73881 12.0084 2.51659C12.0028 2.29437 11.9167 2.09993 11.7501 1.93326C11.5834 1.76659 11.3889 1.68326 11.1667 1.68326C10.9445 1.68326 10.7501 1.76659 10.5834 1.93326L5.45005 7.04993C5.31672 7.18326 5.21672 7.33326 5.15005 7.49993C5.08338 7.66659 5.05005 7.83326 5.05005 7.99993C5.05005 8.16659 5.08338 8.33326 5.15005 8.49993C5.21672 8.66659 5.31672 8.81659 5.45005 8.94993L10.5834 14.0833C10.75 14.2499 10.9473 14.3305 11.175 14.3249C11.4028 14.3194 11.6 14.2333 11.7667 14.0666C11.9334 13.8999 12.0167 13.7055 12.0167 13.4833C12.0167 13.261 11.9334 13.0666 11.7667 12.8999L6.86672 7.99993Z" fill="white"/>
</g>
</svg>
