<svg width="16" height="17" viewBox="0 0 16 17" fill="none" xmlns="http://www.w3.org/2000/svg">
<g clip-path="url(#clip0_4017_5041)">
<path d="M7.99994 16.5C12.4182 16.5 15.9999 12.9183 15.9999 8.5C15.9999 4.08172 12.4182 0.5 7.99994 0.5C3.58166 0.5 -6.10352e-05 4.08172 -6.10352e-05 8.5C-6.10352e-05 12.9183 3.58166 16.5 7.99994 16.5Z" fill="#FFDA44"/>
<path d="M15.9999 8.50029C15.9999 5.75463 14.6165 3.33232 12.5089 1.8916H3.49097C1.38338 3.33232 -6.10352e-05 5.75463 -6.10352e-05 8.50029C-6.10352e-05 11.246 1.38338 13.6683 3.49097 15.109H12.5089C14.6165 13.6683 15.9999 11.246 15.9999 8.50029Z" fill="#A2001D"/>
<path d="M6.26111 6.41311H9.73936V5.02183L9.0437 5.36964L8.00023 4.32617L6.95676 5.36964L6.26111 5.02183V6.41311Z" fill="#FFDA44"/>
<path d="M11.1307 8.49997H9.39222C9.46041 8.38203 9.50003 8.24556 9.50003 8.09956C9.50003 7.65622 9.14063 7.29688 8.69735 7.29688C8.39106 7.29688 8.12506 7.4685 7.98972 7.72069C7.85438 7.46847 7.58838 7.29688 7.28209 7.29688C6.83881 7.29688 6.47941 7.65622 6.47941 8.09956C6.47941 8.24559 6.51909 8.38206 6.58722 8.49997H4.86975C4.86975 9.03194 5.33309 9.46316 5.86503 9.46316H5.83297C5.83297 9.8995 6.12319 10.2679 6.5211 10.3863L5.73931 11.1681L6.47716 11.906L7.52381 10.8593C7.56481 10.8743 7.60722 10.8863 7.65106 10.8946L7.01863 12.3226C7.32169 12.4458 7.65291 12.5142 8.00025 12.5142C8.34756 12.5142 8.67878 12.4458 8.98188 12.3226L8.34944 10.8946C8.39325 10.8864 8.43566 10.8743 8.47663 10.8593L9.52328 11.906L10.2611 11.1681L9.47928 10.3863C9.87716 10.2679 10.1674 9.89953 10.1674 9.46319H10.1353C10.6673 9.46316 11.1307 9.03194 11.1307 8.49997Z" fill="#FFDA44"/>
<path d="M8.00019 9.02148L6.86975 9.5432V10.5867L8.00019 11.2823L9.13063 10.5867V9.5432L8.00019 9.02148Z" fill="#6DA544"/>
<path d="M6.86975 8.5H9.13063V9.89131H6.86975V8.5Z" fill="#0052B4"/>
</g>
<defs>
<clipPath id="clip0_4017_5041">
<rect width="16" height="16" fill="white" transform="translate(-6.10352e-05 0.5)"/>
</clipPath>
</defs>
</svg>
