<svg width="16" height="17" viewBox="0 0 16 17" fill="none" xmlns="http://www.w3.org/2000/svg">
<g clip-path="url(#clip0_4017_5014)">
<path d="M0.000605632 1.8916H-6.10352e-05V15.109H0.000605632V8.50033V1.8916Z" fill="#FF9811"/>
<path d="M7.99992 16.5C12.4182 16.5 15.9999 12.9183 15.9999 8.49998C15.9999 4.08172 12.4182 0.5 7.99992 0.5C3.58165 0.5 -6.10352e-05 4.08172 -6.10352e-05 8.49998C-6.10352e-05 12.9183 3.58165 16.5 7.99992 16.5Z" fill="#FFDA44"/>
<path d="M6.26085 1.8916H3.49101C3.36826 1.97551 3.24813 2.06285 3.13041 2.15326L2.43475 8.50027L3.13041 14.8473C3.24813 14.9377 3.36826 15.0251 3.49101 15.1089H6.26085V1.8916Z" fill="#FF9811"/>
<path d="M0 8.50036C0 11.0862 1.22713 13.385 3.13044 14.8474V2.15332C1.22713 3.61576 0 5.91458 0 8.50036Z" fill="#6DA544"/>
<path d="M12.8698 5.37695V5.57711L12.8772 5.57824L12.8698 5.37695Z" fill="#FFDA44"/>
<path d="M15.3626 10.5872H13.8553L13.2177 11.2829V12.6742H11.8264V11.9786H12.522V10.5872H9.39157V11.4568H8.69591V9.79959C8.48247 9.60852 8.3481 9.33099 8.3481 9.02202V4.50029C8.3481 3.92401 8.81529 3.45682 9.39157 3.45682V9.89162H10.7829L11.2603 9.49377C11.1769 9.29518 11.1307 9.07708 11.1307 8.84815V7.80468H10.0872V5.71773H12.1742C12.1742 5.36992 12.6959 5.02208 12.6959 5.02208C12.6959 5.02208 13.2177 5.36989 13.2177 5.71773V6.23948V7.80471C13.6046 7.8093 14.2195 7.79927 14.8837 7.80471C14.7092 7.49971 14.609 7.1378 14.609 6.76124C14.609 6.14745 14.874 5.59564 15.2958 5.21376C14.6878 3.86642 13.7176 2.7176 12.5092 1.8916H7.30463V15.109H12.5093C13.9786 14.1046 15.0958 12.623 15.6378 10.8874L15.3626 10.5872Z" fill="#A2001D"/>
</g>
<defs>
<clipPath id="clip0_4017_5014">
<rect width="16" height="16" fill="white" transform="translate(-6.10352e-05 0.5)"/>
</clipPath>
</defs>
</svg>
