<svg width="16" height="17" viewBox="0 0 16 17" fill="none" xmlns="http://www.w3.org/2000/svg">
<g clip-path="url(#clip0_4017_4992)">
<path d="M7.99994 16.5C12.4182 16.5 15.9999 12.9183 15.9999 8.5C15.9999 4.08172 12.4182 0.5 7.99994 0.5C3.58166 0.5 -6.10352e-05 4.08172 -6.10352e-05 8.5C-6.10352e-05 12.9183 3.58166 16.5 7.99994 16.5Z" fill="#F0F0F0"/>
<path d="M15.5023 11.283C15.8239 10.4163 15.9999 9.47893 15.9999 8.50037C15.9999 7.5218 15.8239 6.58443 15.5023 5.71777H0.497533C0.17597 6.58443 -6.10352e-05 7.5218 -6.10352e-05 8.50037C-6.10352e-05 9.47893 0.17597 10.4163 0.497533 11.283L7.99994 11.9786L15.5023 11.283Z" fill="#0052B4"/>
<path d="M7.99972 16.4996C11.4394 16.4996 14.3718 14.3286 15.5021 11.2822H0.497314C1.62766 14.3286 4.56 16.4996 7.99972 16.4996Z" fill="#D80027"/>
</g>
<defs>
<clipPath id="clip0_4017_4992">
<rect width="16" height="16" fill="white" transform="translate(-6.10352e-05 0.5)"/>
</clipPath>
</defs>
</svg>
